<?xml version="1.0" encoding="utf-8"?>
<!-- Generator: Adobe Illustrator 27.1.1, SVG Export Plug-In . SVG Version: 6.00 Build 0)  -->
<svg version="1.1" id="Capa_1" xmlns="http://www.w3.org/2000/svg" xmlns:xlink="http://www.w3.org/1999/xlink" x="0px" y="0px"
	 viewBox="0 0 110 80" style="enable-background:new 0 0 110 80;" xml:space="preserve">
<style type="text/css">
	.st0{fill:#FFFFFF;}
</style>
<g>
	<path class="st0" d="M13.8,59.4c6,0,8.8,3.8,8.8,7.5V75h-3.8v-8.1c0-2.3-1.3-6-5-6s-5,3.7-5,6V75H5v-8.1C5,63.2,7.8,59.4,13.8,59.4
		"/>
	<path class="st0" d="M66.1,75.2c-6,0-8.8-3.8-8.8-7.5v-8.1h3.8v8.1c0,2.3,1.3,6,5,6c3.7,0,5-3.7,5-6v-8.1h3.8v8.1
		C74.9,71.4,72.1,75.2,66.1,75.2"/>
	<path class="st0" d="M37.9,73.9c-0.8,0.6-1.8,1.1-3.1,1.3c-3.9,0.6-9.2-1.9-9.4-7.5c-0.2-5.7,5.4-8.1,9.1-8
		c6.2,0.2,8.4,4.9,8.4,7.5V75h-3.8v-7.8c0-1.7-0.8-6.1-4.7-6.1c-3.8-0.1-5.1,3.5-5.1,6.1c0,1.7,0.4,5.9,4.8,6.1
		c1.4,0.1,3.3-0.3,3.8-0.8"/>
	<path class="st0" d="M54.9,77.2c-0.5,0.2-1.9,0.5-3.5,0.1c-1.8-0.5-4.7-1.3-4.7-7.4V53h3.9v6.7h3.5v2.4h-3.5c0,0,0.1,4.8,0,8.6
		c-0.1,3.4,1,4.6,1.7,5c0.9,0.5,2.5,0.3,2.7,0.2"/>
	<path class="st0" d="M78.5,66.4c0-3.8,1.9-6.4,5.4-6.8c2.4-0.2,3.3,0.2,3.3,0.2v1.5c0,0-1.3-0.4-2.7,0.1c-1.6,0.5-2.2,2.8-2.2,3.6
		v10h-3.8"/>
	<path class="st0" d="M100,73.9c-0.8,0.6-1.8,1.1-3.1,1.3c-3.9,0.6-9.2-1.9-9.4-7.5c-0.2-5.7,5.4-8.1,9.1-8c6.2,0.2,8.4,4.9,8.4,7.5
		V75h-3.8v-7.8c0-1.7-0.8-6.1-4.7-6.1c-3.8-0.1-5.1,3.5-5.1,6.1c0,1.7,0.4,5.9,4.8,6.1c1.4,0.1,3.3-0.3,3.8-0.8"/>
	<path class="st0" d="M64.7,9.3c-5-1.5-8.1,2.2-9.5,6.8C54,20,53.8,21,53.1,22.9c-1,2.8-3.2,3-5,0.8c-2.1-2.5-4.7-6.2-6.3-7.9
		c-2-2.3-6.9-4.3-9.3-1.3c-3.7,4.6,1.2,9.7,3.8,12.8c1.8,2.2,4,3.7,3.3,4.9c-0.3,0.5-0.8,0.6-1.6,0.6c-1.8,0-7.8-1.7-9.2-1.9
		c-1.2-0.2-2.1-0.2-2.4,0.7c-0.4,1.1,1.1,4.1,5,6.1c3.9,2,10.1,3,10.7,3.1c2.3,0.5,1.8,1.6,1.3,2.2c-0.5,0.6-1.1,0.9-1,1.5
		c0.3,1.4,3.4,1.7,5.2,2c1.8,0.3,4.1,0.5,5.7-0.2c1.6-0.6,1.7-1.5,2.8-1.9c1.5-0.6,2-0.1,5.1,0.5c2,0.4,5.5-0.1,7.5-0.7
		c3.6-1.2,5.1-2.4,5.1-2.9c0-0.5-0.6-0.6-1.3-0.7c-0.8-0.1-3.4-0.5-4.3-1.1c-0.9-0.6-0.2-1.6,1.6-2.3c1.8-0.7,7.8-3.2,10-5.2
		c2.2-2,4.3-5.3,2.5-7.2c-1.8-1.9-5.1,0.1-6.9,0.9c-2.4,1.1-6.2,3.1-7.5,3.4c-1.1,0.3-3.3,0.2-2.3-2.4c1.3-3.2,1.9-5.2,2.6-7.1
		C69.2,17,70.5,11.1,64.7,9.3 M73.7,16.4c-0.6,2.8-1.8,5.9-2.1,6.6c-0.1,0.1,0,0.2,0.1,0.1c0.7-0.3,3.8-1.9,7.2-3.3
		c3.3-1.4,9.5-1.4,7.9,5.5c-1.6,6.8-9.6,10.9-10.4,11.3c-0.8,0.4-1.8,0.8-2.1,1c-0.1,0.1-0.2,0.2,0,0.3c0.9,0.2,3.7,0.1,3.7,1.3
		c0,1.3-2.1,3.4-7.6,5.7c-6,2.6-11,1.4-12.2,1.1c0,0-0.1,0-0.1,0c-0.3,0.3-3.1,3-11,1.7c-5.7-1-7.1-1.5-8.4-3.1
		c-0.4-0.4-0.6-1.2-0.1-2.2c0.1-0.3,0.1-0.4,0-0.4c-8.6-1.8-13.8-7.2-15.7-10.6c-1-1.7-0.7-2.9-0.2-3.6c0.7-1,3-1.1,5.3-0.5
		c2.6,0.7,4.1,1.1,4.6,1.2c0.2,0,0.2,0,0.1-0.2c-0.7-0.8-3-3.7-4.2-5.6c-2-3.1-4.4-11.3,2-14.7c7.1-3.7,13.4,2.8,14.8,4.6
		c1.2,1.5,3.6,4.8,3.9,5.1c0.3,0.5,0.5,0.1,0.5,0.1s1.7-6,3.2-8.8c2.6-4.9,7.9-7.2,12.5-6.3C74,4.3,74.4,13.2,73.7,16.4"/>
</g>
</svg>
